# xmcd
#
# Track frame offsets:
#	150
#	18860
#	34573
#	60721
#	74469
#	91118
#	107698
#	128309
#	147266
#	165162
#	180150
#	195738
#	214532
#	234642
#
# Disc length: 3327 seconds
#
# Revision: 1
# Processed by: cddbd v1.4PL0 Copyright (c) Steve Scherf et al.
# Submitted via: audiograbber 1.80
#
DISCID=a70cfd0e
DTITLE=Clau and Roger - Era Lindo Nosso Amor
DYEAR=1900
DGENRE=
TTITLE0=Valeu A Pena Te Amar
TTITLE1=Xamego
TTITLE2=Era Lindo Nosso Amor
TTITLE3=No Sabor do Seu Baton
TTITLE4=Eu Acredito no Amor
TTITLE5=Está no Ar
TTITLE6=Se Esse Amor Acabar
TTITLE7=Eu Sinto que É Amor
TTITLE8=Liguei pra Você
TTITLE9=Mulher de Rodeio
TTITLE10=Adoro Você
TTITLE11=Linda Cigana
TTITLE12=Cara na Porta
TTITLE13=Morena do Baile
EXTD=
EXTT0=
EXTT1=
EXTT2=
EXTT3=
EXTT4=
EXTT5=
EXTT6=
EXTT7=
EXTT8=
EXTT9=
EXTT10=
EXTT11=
EXTT12=
EXTT13=
PLAYORDER=
